<svg xmlns="http://www.w3.org/2000/svg" width="15" height="14.146" viewBox="0 0 15 14.146">
  <path id="Icon_ionic-md-arrow-round-forward" data-name="Icon ionic-md-arrow-round-forward" d="M14.357,20.076l5.885-5.71a1.3,1.3,0,0,0,.384-.955v-.017a1.3,1.3,0,0,0-.384-.955l-5.885-5.71a1.26,1.26,0,0,0-1.841,0,1.41,1.41,0,0,0,0,1.926l3.537,3.384H6.933a1.365,1.365,0,0,0,0,2.727h9.119L12.511,18.15a1.41,1.41,0,0,0,0,1.926A1.265,1.265,0,0,0,14.357,20.076Z" transform="translate(-5.625 -6.33)" fill="#ffffff"/>
</svg>
