<svg xmlns="http://www.w3.org/2000/svg" width="23.86" height="23.86" viewBox="0 0 23.86 23.86">
  <path id="Icon_awesome-fax" data-name="Icon awesome-fax" d="M2.982,5.965H1.491A1.491,1.491,0,0,0,0,7.456V22.369A1.491,1.491,0,0,0,1.491,23.86H2.982a1.491,1.491,0,0,0,1.491-1.491V7.456A1.491,1.491,0,0,0,2.982,5.965ZM22.369,7.456V3.6a1.492,1.492,0,0,0-.437-1.055L19.823.437A1.491,1.491,0,0,0,18.768,0H7.456A1.491,1.491,0,0,0,5.965,1.491V22.369A1.491,1.491,0,0,0,7.456,23.86H22.369a1.491,1.491,0,0,0,1.491-1.491V8.947A1.491,1.491,0,0,0,22.369,7.456ZM13.421,20.132a.745.745,0,0,1-.746.746H11.184a.745.745,0,0,1-.746-.746V18.641a.745.745,0,0,1,.746-.746h1.491a.745.745,0,0,1,.746.746Zm0-5.965a.745.745,0,0,1-.746.746H11.184a.745.745,0,0,1-.746-.746V12.676a.745.745,0,0,1,.746-.746h1.491a.745.745,0,0,1,.746.746Zm5.965,5.965a.745.745,0,0,1-.746.746H17.149a.745.745,0,0,1-.746-.746V18.641a.745.745,0,0,1,.746-.746h1.491a.745.745,0,0,1,.746.746Zm0-5.965a.745.745,0,0,1-.746.746H17.149a.745.745,0,0,1-.746-.746V12.676a.745.745,0,0,1,.746-.746h1.491a.745.745,0,0,1,.746.746Zm.746-5.219H8.2V2.237h9.693V3.728a.745.745,0,0,0,.746.746h1.491Z" fill="#003857"/>
</svg>
