<svg xmlns="http://www.w3.org/2000/svg" width="23.86" height="23.86" viewBox="0 0 23.86 23.86">
  <path id="Icon_awesome-phone-alt" data-name="Icon awesome-phone-alt" d="M.681,16.861,5.9,14.624a1.118,1.118,0,0,1,1.3.322L9.516,17.77a17.274,17.274,0,0,0,8.257-8.257L14.95,7.2a1.116,1.116,0,0,1-.322-1.3L16.865.676A1.126,1.126,0,0,1,18.147.029l4.847,1.118a1.118,1.118,0,0,1,.867,1.09A21.621,21.621,0,0,1,2.237,23.86a1.118,1.118,0,0,1-1.09-.867L.028,18.147a1.132,1.132,0,0,1,.653-1.286Z" transform="translate(0 0)" fill="#003857"/>
</svg>
