<svg id="Group_1288" data-name="Group 1288" xmlns="http://www.w3.org/2000/svg" width="24.602" height="24.598" viewBox="0 0 24.602 24.598">
  <path id="Path_24072" data-name="Path 24072" d="M170.9,160.916c3.282,0,3.671.011,4.969.072a6.747,6.747,0,0,1,2.284.425,4.067,4.067,0,0,1,2.331,2.331,6.84,6.84,0,0,1,.425,2.284c.058,1.3.072,1.686.072,4.969s-.011,3.671-.072,4.969a6.747,6.747,0,0,1-.425,2.284,4.067,4.067,0,0,1-2.331,2.331,6.841,6.841,0,0,1-2.284.425c-1.3.058-1.686.072-4.969.072s-3.671-.011-4.969-.072a6.748,6.748,0,0,1-2.284-.425,4.067,4.067,0,0,1-2.331-2.331,6.84,6.84,0,0,1-.425-2.284c-.058-1.3-.072-1.686-.072-4.969s.011-3.671.072-4.969a6.747,6.747,0,0,1,.425-2.284,4.067,4.067,0,0,1,2.331-2.331,6.84,6.84,0,0,1,2.284-.425c1.3-.061,1.686-.072,4.969-.072m0-2.216c-3.34,0-3.758.014-5.069.076a9.039,9.039,0,0,0-2.987.573,5.936,5.936,0,0,0-2.176,1.416,6.053,6.053,0,0,0-1.42,2.18,9.092,9.092,0,0,0-.573,2.987c-.061,1.311-.076,1.729-.076,5.069s.014,3.758.076,5.069a9.039,9.039,0,0,0,.573,2.987,6.309,6.309,0,0,0,3.6,3.592,9.092,9.092,0,0,0,2.987.573c1.311.061,1.729.076,5.069.076s3.758-.014,5.069-.076a9.039,9.039,0,0,0,2.987-.573,6.309,6.309,0,0,0,3.592-3.6,9.093,9.093,0,0,0,.573-2.987c.061-1.312.076-1.729.076-5.069s-.014-3.758-.076-5.069a9.039,9.039,0,0,0-.573-2.987,6.309,6.309,0,0,0-3.6-3.592,9.093,9.093,0,0,0-2.987-.573c-1.308-.058-1.726-.072-5.066-.072Z" transform="translate(-158.6 -158.7)" fill="#203970"/>
  <path id="Path_24073" data-name="Path 24073" d="M331.016,324.7a6.316,6.316,0,1,0,6.316,6.316A6.317,6.317,0,0,0,331.016,324.7Zm0,10.416a4.1,4.1,0,1,1,4.1-4.1A4.1,4.1,0,0,1,331.016,335.116Z" transform="translate(-318.715 -318.719)" fill="#203970"/>
  <circle id="Ellipse_101" data-name="Ellipse 101" cx="1.477" cy="1.477" r="1.477" transform="translate(17.388 4.255)" fill="#203970"/>
</svg>
