<svg xmlns="http://www.w3.org/2000/svg" width="24.382" height="28.269" viewBox="0 0 24.382 28.269">
  <path id="PDF" d="M22.354,26.254V10.1H15.747a1.675,1.675,0,0,1-1.078-.442,1.658,1.658,0,0,1-.445-1.071V2.021H2.034V26.259h20.32Zm-6.1-24.105V8.079h5.968a1.808,1.808,0,0,0-.35-.646L16.909,2.5A2.094,2.094,0,0,0,16.259,2.148ZM23.3,6a4.383,4.383,0,0,1,.761,1.2,3.97,3.97,0,0,1,.317,1.386V26.756a1.656,1.656,0,0,1-.445,1.071,1.681,1.681,0,0,1-1.078.442H1.523a1.653,1.653,0,0,1-1.078-.436A1.658,1.658,0,0,1,0,26.762V1.513A1.656,1.656,0,0,1,.445.442,1.681,1.681,0,0,1,1.523,0H15.747a4.405,4.405,0,0,1,1.395.315,4.037,4.037,0,0,1,1.206.757Z" fill="#0070af"/>
</svg>
