<svg id="Page-1" xmlns="http://www.w3.org/2000/svg" width="18.834" height="18.929" viewBox="0 0 18.834 18.929">
  <g id="SP_x2_FilteringLayerSearch_Xs_N_D" transform="translate(0)">
    <path id="Fill-2" d="M-276.676,402.5a2.031,2.031,0,0,1,0,2.836c-1.229,1.323-2.742,0-2.742,0l-4.538-4.254a11.9,11.9,0,0,1-3.5.851,7.424,7.424,0,0,1-7.468-7.468A7.484,7.484,0,0,1-287.454,387a7.424,7.424,0,0,1,7.469,7.469,7.1,7.1,0,0,1-.851,3.5l4.16,4.538Zm-5.483-8.036a5.386,5.386,0,0,0-5.389-5.389,5.386,5.386,0,0,0-5.389,5.389,5.386,5.386,0,0,0,5.389,5.389,5.448,5.448,0,0,0,5.389-5.389Z" transform="translate(294.922 -387)" fill="#cc2961"/>
  </g>
</svg>
