<svg xmlns="http://www.w3.org/2000/svg" width="22.512" height="18.3" viewBox="0 0 22.512 18.3">
  <path id="Path_24069" data-name="Path 24069" d="M194.773,264.4a13.06,13.06,0,0,0,13.147-13.147c0-.2,0-.4-.014-.6a9.392,9.392,0,0,0,2.306-2.392,9.178,9.178,0,0,1-2.652.728,4.632,4.632,0,0,0,2.032-2.555,9.245,9.245,0,0,1-2.933,1.121,4.623,4.623,0,0,0-7.873,4.212,13.124,13.124,0,0,1-9.523-4.828,4.625,4.625,0,0,0,1.43,6.168,4.6,4.6,0,0,1-2.1-.577v.058a4.621,4.621,0,0,0,3.708,4.529,4.639,4.639,0,0,1-2.086.079,4.631,4.631,0,0,0,4.316,3.21,9.257,9.257,0,0,1-5.736,1.982,8.606,8.606,0,0,1-1.1-.068,13.05,13.05,0,0,0,7.073,2.079" transform="translate(-187.7 -246.101)" fill="#203970"/>
</svg>
